<svg width="100" height="80" viewBox="0 0 100 80" fill="none" xmlns="http://www.w3.org/2000/svg">
<path fill-rule="evenodd" clip-rule="evenodd" d="M88.0002 27.56C77.6802 21.6 63.6402 16.6 62.0002 16C63.4002 16.28 74.4402 18.72 85.9602 22.48C79.4802 9.16 65.8002 0 50.0002 0C31.6002 0 16.0802 12.4 11.4402 29.36C10.9202 31.24 10.5202 33.16 10.3202 35.12C6.56021 35.44 3.68021 36.32 2.00021 38C-2.27979 42.28 3.72021 47.68 12.0002 52.44C22.3202 58.4 36.3602 63.4 38.0002 64C36.6002 63.72 25.5602 61.28 14.0402 57.52C20.5602 70.84 34.2002 80 50.0002 80C68.4002 80 83.9202 67.56 88.5602 50.64C89.0802 48.76 89.4802 46.84 89.6802 44.88C93.4402 44.56 96.3202 43.68 98.0002 42C102.28 37.72 96.2802 32.32 88.0002 27.56ZM42.0002 68C39.8002 68 38.0002 66.2 38.0002 64C38.0002 61.8 39.8002 60 42.0002 60C44.2002 60 46.0002 61.8 46.0002 64C46.0002 66.2 44.2002 68 42.0002 68ZM58.0002 20C55.8002 20 54.0002 18.2 54.0002 16C54.0002 13.8 55.8002 12 58.0002 12C60.2002 12 62.0002 13.8 62.0002 16C62.0002 18.2 60.2002 20 58.0002 20Z" fill="url(#paint0_linear_3638_7840)"/>
<path d="M46.08 32V48H42.2V38.4L38.64 48H35.48L31.88 38.4V48H28V32H32.6L37.08 43.08L41.52 32H46.12H46.08Z" fill="#23037D"/>
<path d="M53 47.16C51.76 46.48 50.76 45.48 50 44.24C49.24 43 48.88 41.56 48.88 40C48.88 38.44 49.24 37.04 50 35.8C50.76 34.56 51.72 33.6 53 32.88C54.28 32.16 55.64 31.84 57.12 31.84C58.6 31.84 60 32.2 61.24 32.88C62.48 33.56 63.48 34.56 64.2 35.8C64.92 37.04 65.28 38.44 65.28 40C65.28 41.56 64.92 42.96 64.2 44.24C63.48 45.48 62.48 46.48 61.24 47.16C60 47.84 58.6 48.2 57.12 48.2C55.64 48.2 54.24 47.84 53 47.16ZM60.2 43.36C60.96 42.52 61.36 41.4 61.36 40C61.36 38.6 60.96 37.44 60.2 36.6C59.44 35.76 58.4 35.32 57.12 35.32C55.84 35.32 54.8 35.72 54.04 36.56C53.28 37.4 52.88 38.52 52.88 39.96C52.88 41.4 53.28 42.52 54.04 43.36C54.8 44.2 55.84 44.64 57.12 44.64C58.4 44.64 59.4 44.2 60.2 43.36Z" fill="#23037D"/>
<path d="M72 32V48H68.12V32H72Z" fill="#23037D"/>
<defs>
<linearGradient id="paint0_linear_3638_7840" x1="50.0002" y1="4.48" x2="50.0002" y2="76.04" gradientUnits="userSpaceOnUse">
<stop stop-color="#DBCEF9"/>
<stop offset="1" stop-color="white"/>
</linearGradient>
</defs>
</svg>
