<svg xmlns="http://www.w3.org/2000/svg" viewBox="0 0 680 300" width="680" height="300" role="img" aria-labelledby="t d">
<title id="t">The payment layer: 713 lines of TypeScript across six files</title>
<desc id="d">Horizontal bars: registry discovery 171 lines, seller verification 136, payment 135, wire format 125, paywall 90, identity check 56.</desc>
<rect width="680" height="300" fill="#fcfbff"/>
<style>.f{font-family:Poppins,"Helvetica Neue",Arial,sans-serif}.l{font-size:13px;font-weight:500;fill:#0a051a}.v{font-size:12.5px;font-weight:600;fill:#4b17e5}.c{font-size:12px;font-weight:600;letter-spacing:.1em;text-transform:uppercase;fill:rgba(10,5,26,.55)}</style>
<text x="170" y="24" class="f c">Lines of TypeScript per file · 713 total</text>
<text x="158" y="63.0" text-anchor="end" class="f l">Registry discovery</text>
<rect x="170" y="44" width="440" height="28" rx="8" fill="#4b17e5" fill-opacity="0.42"/>
<text x="620" y="63.0" class="f v">171</text>
<text x="158" y="105.0" text-anchor="end" class="f l">Seller verification</text>
<rect x="170" y="86" width="350" height="28" rx="8" fill="#4b17e5" fill-opacity="0.42"/>
<text x="530" y="105.0" class="f v">136</text>
<text x="158" y="147.0" text-anchor="end" class="f l">Payment</text>
<rect x="170" y="128" width="347" height="28" rx="8" fill="#4b17e5" fill-opacity="0.42"/>
<text x="527" y="147.0" class="f v">135</text>
<text x="158" y="189.0" text-anchor="end" class="f l">Wire format</text>
<rect x="170" y="170" width="322" height="28" rx="8" fill="#4b17e5" fill-opacity="0.42"/>
<text x="502" y="189.0" class="f v">125</text>
<text x="158" y="231.0" text-anchor="end" class="f l">Paywall</text>
<rect x="170" y="212" width="232" height="28" rx="8" fill="#4b17e5" fill-opacity="0.42"/>
<text x="412" y="231.0" class="f v">90</text>
<text x="158" y="273.0" text-anchor="end" class="f l">Identity check</text>
<rect x="170" y="254" width="144" height="28" rx="8" fill="#4b17e5" fill-opacity="0.9"/>
<text x="324" y="273.0" class="f v">56</text>
</svg>